# xmcd
#
# Track frame offsets: 
#        150
#        9454
#        18918
#        30086
#        42096
#        49614
#        58231
#        66697
#        75195
#        86260
#        94883
#        103923
#        114557
#        125868
#        137123
#        147660
#        157205
#        165803
#        182220
#        192145
#        198942
#        208150
#        216875
#        225805
#        232699
#        243851
#        257071
#        269042
#
# Disc length: 3689 seconds
#
# Revision: 1
# Processed by: cddbd v1.5.2PL0 Copyright (c) Steve Scherf et al.
# Submitted via: ExactAudioCopyFreeDBPlugin 1.0
#
DISCID=820e671c
DTITLE=Various Artist - By the Bayou [Ace Records]
DYEAR=2016
DGENRE=Rhythm and Blues
TTITLE0=Cookie Roberts - Draggin' the Drive-Inns
TTITLE1=Mickey Gilley (Mr. Excitement) - Drive In Movie
TTITLE2=Fred Carter - (You'll Have To) Come and Get It
TTITLE3=Jerry Noble and The Plantation Playboys - Mabel's Done Gone
TTITLE4=Joe Jackson - Rock My Warriors Rock
TTITLE5=Terry Clememt and The Tune Tones - Rock Me Mama
TTITLE6=Burl Boykin - Let Me Come Your Way
TTITLE7=Vic Wilder with the Eddy Darcy Band - Earlene
TTITLE8=Frankie Lowery - She's Fine
TTITLE9=Zorro and The Zips - Frankie and Johnny
TTITLE10=Jay Chevalier and The Longshots - Cuttin' Cane
TTITLE11=Doug Stamford - Won't You Tell Me
TTITLE12=Terry Clement and The Tune Tones - Hey Joli
TTITLE13=Cleveland Crochet and His Band of Sugar Bees - Sweet Thing
TTITLE14=Jay Nanules - Trio Boogie
TTITLE15=Terry Clement and The Tune Tones - Won't Somebody Love Me
TTITLE16=Roy Templin and The Credit Cards - Charge It
TTITLE17=Johnny Bass - Love Can Wait
TTITLE18=Wiley Jeffers - Baby I Don't Care
TTITLE19=(unknown band) - Zynnin'
TTITLE20=Frankie Lowery - She's Mine
TTITLE21=Johnny and The Jammers - School Day Blues
TTITLE22=Terry Clement and The Tune Tones - She's My Baby Doll
TTITLE23=Arnold Broussard - Don't Do it Daddy
TTITLE24=Tommy Todd - Prisoner's Song
TTITLE25=Rod Bernard - No Money Down
TTITLE26=Wayne Farmer and The Teen-Beats - Yeah! Yeah! My Baby
TTITLE27=Jay Chevalier - Kruschev and the Devil
EXTD=
EXTT0=
EXTT1=
EXTT2=
EXTT3=
EXTT4=
EXTT5=
EXTT6=
EXTT7=
EXTT8=
EXTT9=
EXTT10=
EXTT11=
EXTT12=
EXTT13=
EXTT14=
EXTT15=
EXTT16=
EXTT17=
EXTT18=
EXTT19=
EXTT20=
EXTT21=
EXTT22=
EXTT23=
EXTT24=
EXTT25=
EXTT26=
EXTT27=
PLAYORDER=
